<svg width="276" height="289" viewBox="0 0 276 289" fill="none" xmlns="http://www.w3.org/2000/svg">
<path d="M132.273 0.189935C126.485 0.743741 113.556 2.95897 109 4.18965C106.415 4.92806 103.706 5.66647 103.028 5.78953C96.7487 7.38942 78.525 15.2042 71.6296 19.327C52.6055 30.6493 35.2438 47.202 23.3615 65.293C16.5891 75.6307 9.93997 89.9681 5.56875 103.813C2.55199 113.413 0.581863 126.458 0.0893312 139.503C-1.142 175.562 10.3709 209.283 33.7046 237.65C37.768 242.573 51.3742 255.433 56.5458 259.31C65.6576 266.017 70.3982 268.971 79.0175 273.34C117.804 292.969 163.302 294.2 203.074 276.724C216.619 270.755 231.21 261.34 241.615 251.864C248.202 245.772 249.741 243.742 250.419 240.05C252.142 230.943 244.447 222.697 235.581 224.051C231.826 224.666 229.671 225.958 224.438 230.943C207.999 246.449 186.759 256.787 163.056 260.787C155.791 262.017 138.983 262.51 132.58 261.71C116.327 259.556 103.706 255.802 91.023 249.218C85.1742 246.203 82.5884 244.665 75.262 239.742C71.999 237.527 61.9021 228.481 57.7771 224.051C31.1188 195.253 20.7141 154.025 30.38 115.505C32.9658 104.982 38.9993 90.3373 43.0627 84.6147C43.74 83.7532 44.2325 82.8302 44.2325 82.6456C44.2325 82.461 44.8482 81.4149 45.6485 80.3073C56.2995 64.7392 70.6445 51.0171 84.5585 43.0792C99.0266 34.8336 112.202 30.2186 128.271 27.8187C136.028 26.6496 153.328 26.4034 159.054 27.4495C161.086 27.7572 163.795 28.1879 165.087 28.4341C180.664 30.6493 200.427 39.141 214.402 49.6018L217.973 52.2478L208.861 61.4163C203.874 66.4006 199.503 70.3388 199.134 70.1542C198.764 69.9696 197.902 69.2927 197.225 68.6774C194.516 66.3391 182.326 60.001 176.293 57.7858C145.94 46.8943 111.525 52.5554 87.0212 72.4925C66.8274 88.9836 55.1913 110.767 52.7287 136.611C50.0813 164.917 61.7174 194.207 83.2041 213.221C98.0416 226.328 116.388 234.142 137.075 236.173C156.776 238.081 178.324 232.666 195.07 221.466C200.796 217.59 201.165 217.344 205.844 213.344C211.94 208.052 213.848 204.791 213.787 199.437C213.725 196.114 211.878 192.053 209.415 189.838C207.445 188.053 203.567 186.761 200.303 186.761C196.548 186.7 193.408 188.238 189.529 191.807C169.89 210.021 141.323 214.821 117.497 203.929C83.9429 188.546 69.8441 148.549 86.2824 115.197C98.8419 89.722 127.717 75.2 155.976 80.1842C163.979 81.5995 175.431 85.9684 179.556 89.2297C180.171 89.722 178.201 92.0603 170.998 99.2598L161.64 108.674L159.793 107.751C155.175 105.29 143.724 104.367 136.213 105.721C125.623 107.69 114.357 116.366 109.062 126.827C104.137 136.488 103.829 150.395 108.2 160.117C112.448 169.47 119.282 176.362 128.332 180.546C133.319 182.823 137.998 183.746 144.524 183.808C166.688 183.869 184.05 166.516 183.988 144.487C183.927 138.519 183.126 133.719 181.341 129.596L180.418 127.381L226.9 80.9842C254.667 53.2323 273.875 33.6029 274.676 32.1261C277.262 27.2034 275.969 20.4346 271.597 16.3119C269.689 14.4658 265.441 12.7429 262.855 12.7429C258.176 12.7429 256.575 13.8505 246.601 23.6959C241.184 29.1109 236.689 33.1107 236.443 32.7415C234.534 30.034 220.99 21.173 210.831 15.8811C196.856 8.68163 182.141 3.82044 166.442 1.35908C160.47 0.374537 138.244 -0.363872 132.273 0.189935ZM151.358 133.719C160.778 139.934 158.561 154.148 147.726 156.733C135.105 159.748 126.547 144.672 135.72 135.565C137.259 134.027 139.414 132.611 140.707 132.242C144.093 131.257 148.649 131.934 151.358 133.719Z" fill="url(#paint0_linear_473_27)"/>
<defs>
<linearGradient id="paint0_linear_473_27" x1="138" y1="0" x2="138" y2="289" gradientUnits="userSpaceOnUse">
<stop stop-color="#3EC100"/>
<stop offset="1" stop-color="#38B0E3"/>
</linearGradient>
</defs>
</svg>
